<svg width="29" height="29" viewBox="0 0 29 29" fill="none" xmlns="http://www.w3.org/2000/svg">
<g clip-path="url(#clip0_17_145)">
<path d="M14.5586 0.349609V9.96961" stroke="white" strokeWidth="1.04" strokeMiterlimit="10" />
<path d="M9.76953 5.28953L14.2095 0.669531C14.3995 0.469531 14.7195 0.469531 14.9195 0.669531L19.5095 5.25953" stroke="white" strokeWidth="1.04" strokeMiterlimit="10" />
<path d="M28.5184 14.1299H18.8984" stroke="white" strokeWidth="1.04" strokeMiterlimit="10" />
<path d="M23.5781 18.9197L28.1981 14.4797C28.3981 14.2897 28.3981 13.9697 28.1981 13.7697L23.6081 9.17969" stroke="white" strokeWidth="1.04" strokeMiterlimit="10" />
<path d="M14.6289 27.9296V18.3096" stroke="white" strokeWidth="1.04" strokeMiterlimit="10" />
<path d="M19.4197 22.9902L14.9797 27.6102C14.7897 27.8102 14.4697 27.8102 14.2697 27.6102L9.67969 23.0202" stroke="white" strokeWidth="1.04" strokeMiterlimit="10" />
<path d="M0.851562 14.0703H10.4716" stroke="white" strokeWidth="1.04" strokeMiterlimit="10" />
<path d="M5.78953 9.26953L1.16953 13.7095C0.969531 13.8995 0.969531 14.2195 1.16953 14.4195L5.75953 19.0095" stroke="white" strokeWidth="1.04" strokeMiterlimit="10" />
<path d="M14.6383 14.8703C14.9973 14.8703 15.2883 14.5793 15.2883 14.2203C15.2883 13.8613 14.9973 13.5703 14.6383 13.5703C14.2793 13.5703 13.9883 13.8613 13.9883 14.2203C13.9883 14.5793 14.2793 14.8703 14.6383 14.8703Z" fill="white" />
</g>
<defs>
<clipPath id="clip0_17_145">
<rect width="28.37" height="28.28" fill="white" transform="translate(0.5)"/>
</clipPath>
</defs>
</svg>
