<svg width="22" height="22" viewBox="0 0 22 22" fill="none" xmlns="http://www.w3.org/2000/svg">
<g clip-path="url(#clip0_147_19260)">
<path d="M18.1005 3.80078L12.4805 9.42078" stroke="black" stroke-miterlimit="10"/>
<path d="M18.2302 7.93992V4.09992C18.2302 3.86992 18.0402 3.66992 17.8002 3.66992H14.1602" stroke="black" stroke-miterlimit="10"/>
<path d="M9.65 11.2598H1.37C0.889512 11.2598 0.5 11.6493 0.5 12.1298V20.4098C0.5 20.8903 0.889512 21.2798 1.37 21.2798H9.65C10.1305 21.2798 10.52 20.8903 10.52 20.4098V12.1298C10.52 11.6493 10.1305 11.2598 9.65 11.2598Z" stroke="black" stroke-miterlimit="10"/>
<path d="M1.78906 9.24V1.15C1.78906 0.79 2.07906 0.5 2.43906 0.5H20.6391C20.9991 0.5 21.2891 0.79 21.2891 1.15V19.35C21.2891 19.71 20.9991 20 20.6391 20H12.6391" stroke="black" stroke-miterlimit="10"/>
</g>
<defs>
<clipPath id="clip0_147_19260">
<rect width="21.78" height="21.78" fill="white"/>
</clipPath>
</defs>
</svg>
