<svg width="21" height="14" viewBox="0 0 21 14" fill="none" xmlns="http://www.w3.org/2000/svg">
<g clip-path="url(#clip0_142_6156)">
<path d="M16.18 0.5H4.04C2.08491 0.5 0.5 2.08491 0.5 4.04V9.11C0.5 11.0651 2.08491 12.65 4.04 12.65H16.18C18.1351 12.65 19.72 11.0651 19.72 9.11V4.04C19.72 2.08491 18.1351 0.5 16.18 0.5Z" stroke="black" stroke-width="0.8" stroke-miterlimit="10"/>
<path d="M8.58008 4.51962V9.10962C8.58008 9.40962 8.92008 9.58963 9.16008 9.41963L12.5201 7.12963C12.7401 6.97963 12.7401 6.65963 12.5201 6.50963L9.16008 4.21962C8.91008 4.04962 8.58008 4.21963 8.58008 4.52963V4.51962Z" stroke="black" stroke-width="0.8" stroke-miterlimit="10"/>
</g>
<defs>
<clipPath id="clip0_142_6156">
<rect width="20.22" height="13.15" fill="white"/>
</clipPath>
</defs>
</svg>
