<svg width="28" height="33" viewBox="0 0 28 33" fill="none" xmlns="http://www.w3.org/2000/svg">
<g clip-path="url(#clip0_135_2)">
<path d="M14.6313 32.42L26.999 24.9486C27.3723 24.7227 27.6026 24.3112 27.6026 23.8674V10.0946C27.6026 9.67502 27.3961 9.28773 27.0546 9.05375L14.6869 0.614141C14.2659 0.331745 13.7258 0.331745 13.3048 0.614141L0.945058 9.04568C0.603498 9.27967 0.396973 9.66695 0.396973 10.0865V23.8594C0.396973 24.3031 0.627327 24.7146 1.00066 24.9405L13.3683 32.4119C13.7575 32.6459 14.2421 32.6459 14.6313 32.4119V32.42Z" stroke="black" stroke-miterlimit="10"/>
<path d="M0.396973 9.42383L14.0038 18.1055V32.2253" stroke="black" stroke-miterlimit="10"/>
<path d="M14.0039 18.2265L27.6028 9.42383" stroke="black" stroke-miterlimit="10"/>
</g>
<defs>
<clipPath id="clip0_135_2">
<rect width="28" height="33" fill="white"/>
</clipPath>
</defs>
</svg>
