<svg width="32" height="25" viewBox="0 0 32 25" fill="none" xmlns="http://www.w3.org/2000/svg">
<g clip-path="url(#clip0_147_19252)">
<path d="M24.7901 19.9694C20.5401 24.8994 13.1001 25.4494 8.17006 21.2094C4.59006 18.1294 3.32006 13.3694 4.51006 9.10938" stroke="white" stroke-miterlimit="10"/>
<path d="M6.93945 4.58981C11.1795 -0.34019 18.6195 -0.890191 23.5495 3.35981C27.1195 6.43981 28.3995 11.1898 27.2095 15.4498" stroke="white" stroke-miterlimit="10"/>
<path d="M31.4009 10.9707L27.7409 15.3907C27.5809 15.5807 27.3009 15.6107 27.1109 15.4407L22.7109 11.6507" stroke="white" stroke-miterlimit="10"/>
<path d="M0.390625 13.4996L4.05063 9.07963C4.21063 8.88963 4.49062 8.85963 4.68062 9.02963L9.08062 12.8196" stroke="white" stroke-miterlimit="10"/>
<path d="M16.2602 13.7197C16.9616 13.7197 17.5302 13.1511 17.5302 12.4497C17.5302 11.7483 16.9616 11.1797 16.2602 11.1797C15.5588 11.1797 14.9902 11.7483 14.9902 12.4497C14.9902 13.1511 15.5588 13.7197 16.2602 13.7197Z" fill="white"/>
</g>
<defs>
<clipPath id="clip0_147_19252">
<rect width="31.78" height="24.57" fill="white"/>
</clipPath>
</defs>
</svg>
