<svg width="19" height="18" viewBox="0 0 19 18" fill="none" xmlns="http://www.w3.org/2000/svg">
<g clip-path="url(#clip0_142_6143)">
<path d="M0.160156 0.410156C1.63016 1.01016 2.70016 2.30016 3.01016 3.86016L4.20016 9.85016C4.48016 11.2402 5.70016 12.2402 7.11016 12.2402H16.4802" stroke="black" stroke-width="0.8" stroke-miterlimit="10"/>
<path d="M2.88086 3.50977H16.5909C17.4009 3.50977 17.9809 4.27977 17.7709 5.05977L16.8209 8.46977C16.6309 9.15977 16.0009 9.63977 15.2809 9.63977H4.26086" stroke="black" stroke-width="0.8" stroke-miterlimit="10"/>
<path d="M7.12094 16.8903C7.89966 16.8903 8.53094 16.259 8.53094 15.4803C8.53094 14.7016 7.89966 14.0703 7.12094 14.0703C6.34222 14.0703 5.71094 14.7016 5.71094 15.4803C5.71094 16.259 6.34222 16.8903 7.12094 16.8903Z" stroke="black" stroke-width="0.8" stroke-miterlimit="10"/>
<path d="M13.9998 16.8903C14.7786 16.8903 15.4098 16.259 15.4098 15.4803C15.4098 14.7016 14.7786 14.0703 13.9998 14.0703C13.2211 14.0703 12.5898 14.7016 12.5898 15.4803C12.5898 16.259 13.2211 16.8903 13.9998 16.8903Z" stroke="black" stroke-width="0.8" stroke-miterlimit="10"/>
</g>
<defs>
<clipPath id="clip0_142_6143">
<rect width="18.24" height="17.33" fill="white"/>
</clipPath>
</defs>
</svg>
